<svg width="258" height="312" viewBox="0 0 258 312" fill="none" xmlns="http://www.w3.org/2000/svg">
<path d="M190 0H0V267H190V0Z" transform="translate(2.56006 51.6498) rotate(-14.9993)" fill="white" stroke="#1485E0" stroke-width="4" stroke-miterlimit="10"/>
<path d="M0 0L65 242.4" transform="translate(37.5 50.6)" stroke="#C4E1F7" stroke-width="2" stroke-miterlimit="10"/>
<path d="M0 46.3L172.9 0" transform="translate(15.5 30.3)" stroke="#C4E1F7" stroke-miterlimit="10"/>
<path d="M0 46.4L172.9 0" transform="translate(17.6 38)" stroke="#C4E1F7" stroke-miterlimit="10"/>
<path d="M0 46.3L172.9 0" transform="translate(19.7 45.8)" stroke="#C4E1F7" stroke-miterlimit="10"/>
<path d="M0 46.3L172.9 0" transform="translate(21.8 53.5)" stroke="#C4E1F7" stroke-miterlimit="10"/>
<path d="M0 46.4L172.9 0" transform="translate(23.8 61.2)" stroke="#C4E1F7" stroke-miterlimit="10"/>
<path d="M0 46.3L172.9 0" transform="translate(25.9 69)" stroke="#C4E1F7" stroke-miterlimit="10"/>
<path d="M0 46.3L172.9 0" transform="translate(28 76.7)" stroke="#C4E1F7" stroke-miterlimit="10"/>
<path d="M0 46.3L172.9 0" transform="translate(30 84.4)" stroke="#C4E1F7" stroke-miterlimit="10"/>
<path d="M0 46.4L172.9 0" transform="translate(32.1 92.1)" stroke="#C4E1F7" stroke-miterlimit="10"/>
<path d="M0 46.3L172.9 0" transform="translate(34.2 99.9)" stroke="#C4E1F7" stroke-miterlimit="10"/>
<path d="M0 46.3L172.9 0" transform="translate(36.2 107.6)" stroke="#C4E1F7" stroke-miterlimit="10"/>
<path d="M0 46.3L172.9 0" transform="translate(38.3 115.3)" stroke="#C4E1F7" stroke-miterlimit="10"/>
<path d="M0 46.4L172.9 0" transform="translate(40.4 123)" stroke="#C4E1F7" stroke-miterlimit="10"/>
<path d="M0 46.3L172.9 0" transform="translate(42.5 130.8)" stroke="#C4E1F7" stroke-miterlimit="10"/>
<path d="M0 46.3L172.9 0" transform="translate(44.5 138.5)" stroke="#C4E1F7" stroke-miterlimit="10"/>
<path d="M0 46.4L172.9 0" transform="translate(46.6 146.2)" stroke="#C4E1F7" stroke-miterlimit="10"/>
<path d="M0 46.3L172.9 0" transform="translate(48.7 154)" stroke="#C4E1F7" stroke-miterlimit="10"/>
<path d="M0 46.3L172.9 0" transform="translate(50.7 161.7)" stroke="#C4E1F7" stroke-miterlimit="10"/>
<path d="M0 46.3L172.9 0" transform="translate(52.8 169.4)" stroke="#C4E1F7" stroke-miterlimit="10"/>
<path d="M0 46.4L172.9 0" transform="translate(54.9 177.1)" stroke="#C4E1F7" stroke-miterlimit="10"/>
<path d="M0 46.3L172.9 0" transform="translate(57 184.9)" stroke="#C4E1F7" stroke-miterlimit="10"/>
<path d="M0 46.3L172.9 0" transform="translate(59 192.6)" stroke="#C4E1F7" stroke-miterlimit="10"/>
<path d="M0 46.3L172.9 0" transform="translate(61.1 200.3)" stroke="#C4E1F7" stroke-miterlimit="10"/>
<path d="M0 46.4L172.9 0" transform="translate(63.2 208)" stroke="#C4E1F7" stroke-miterlimit="10"/>
<path d="M0 46.3L172.9 0" transform="translate(65.2 215.8)" stroke="#C4E1F7" stroke-miterlimit="10"/>
<path d="M0 46.3L172.9 0" transform="translate(67.3 223.5)" stroke="#C4E1F7" stroke-miterlimit="10"/>
<path d="M0 46.4L172.9 0" transform="translate(69.4 231.2)" stroke="#C4E1F7" stroke-miterlimit="10"/>
<path d="M0 46.3L172.9 0" transform="translate(71.4 239)" stroke="#C4E1F7" stroke-miterlimit="10"/>
<path d="M0 46.3L172.9 0" transform="translate(73.5 246.7)" stroke="#C4E1F7" stroke-miterlimit="10"/>
<path d="M4.04673 8C2.24673 8 0.646764 6.8 0.146764 5C-0.453236 2.9 0.846751 0.700037 2.94675 0.100037C3.24675 3.66196e-05 3.64675 0 3.94675 0C5.74675 0 7.34678 1.2 7.84678 3C8.44678 5.1 7.14673 7.30002 5.04673 7.90002C4.74673 7.90002 4.44673 8 4.04673 8Z" transform="translate(75.1532 275.6)" fill="white"/>
<path d="M5.00645 2C6.40645 2 7.50648 2.90001 7.90648 4.20001C8.30648 5.80001 7.4065 7.40002 5.8065 7.90002C5.5065 8.00002 5.30645 8 5.00645 8C3.60645 8 2.50649 7.10005 2.10649 5.80005C1.70649 4.20005 2.60647 2.60004 4.20647 2.10004C4.50647 2.00004 4.80645 2 5.00645 2ZM5.00645 0C4.60645 0 4.10647 0.100012 3.70647 0.200012C1.00647 0.900012 -0.593533 3.70005 0.206467 6.30005C0.806467 8.50005 2.80645 10 5.00645 10C5.40645 10 5.9065 9.90005 6.3065 9.80005C9.0065 9.10005 10.6065 6.30001 9.8065 3.70001C9.3065 1.40001 7.20645 0 5.00645 0Z" transform="translate(74.1935 274.6)" fill="#1485E0"/>
<path d="M4.04093 8C2.24093 8 0.640963 6.8 0.140963 5C-0.159037 4 0.0409263 2.9 0.540926 2C1.04093 1.1 1.94095 0.399976 2.94095 0.0999756C3.24095 -2.44156e-05 3.64095 0 3.94095 0C5.74095 0 7.34098 1.2 7.84098 3C8.14098 4 7.94095 5.1 7.44095 6C6.94095 6.9 6.04093 7.59996 5.04093 7.89996C4.74093 7.99996 4.34093 8 4.04093 8Z" transform="translate(47.659 172.7)" fill="white"/>
<path d="M5.00645 2C6.40645 2 7.50648 2.90001 7.90648 4.20001C8.10648 5.00001 8.00649 5.8 7.60649 6.5C7.20649 7.2 6.6065 7.69996 5.8065 7.89996C5.5065 7.99996 5.30645 8 5.00645 8C3.60645 8 2.50649 7.09999 2.10649 5.79999C1.90649 4.99999 2.00648 4.2 2.40648 3.5C2.80648 2.8 3.40647 2.29998 4.20647 2.09998C4.50647 1.99998 4.70645 2 5.00645 2ZM5.00645 0C4.60645 0 4.10647 0.100012 3.70647 0.200012C1.00647 0.900012 -0.593533 3.69999 0.206467 6.29999C0.806467 8.49999 2.80645 10 5.00645 10C5.40645 10 5.9065 9.89999 6.3065 9.79999C9.0065 9.09999 10.6065 6.30001 9.8065 3.70001C9.2065 1.50001 7.20645 0 5.00645 0Z" transform="translate(46.6935 171.7)" fill="#1485E0"/>
<path d="M4.04678 8C2.24678 8 0.646759 6.8 0.146759 5C-0.453241 2.9 0.846808 0.700006 2.94681 0.100006C3.24681 6.10203e-06 3.64681 0 3.94681 0C5.74681 0 7.34677 1.2 7.84677 3C8.44677 5.1 7.14678 7.30002 5.04678 7.90002C4.74678 8.00002 4.44678 8 4.04678 8Z" transform="translate(20.0532 69.7999)" fill="white"/>
<path d="M5.00645 2C6.40645 2 7.50648 2.90001 7.90648 4.20001C8.30648 5.80001 7.40644 7.40002 5.80644 7.90002C5.50644 8.00002 5.30645 8 5.00645 8C3.60645 8 2.50643 7.10002 2.10643 5.80002C1.90643 5.00002 2.00648 4.2 2.40648 3.5C2.80648 2.8 3.40647 2.30001 4.20647 2.10001C4.50647 2.10001 4.70645 2 5.00645 2ZM5.00645 0C4.60645 0 4.10647 0.100012 3.70647 0.200012C1.00647 0.900012 -0.593533 3.70002 0.206467 6.30002C0.806467 8.50002 2.80645 10 5.00645 10C5.40645 10 5.90644 9.90002 6.30644 9.80002C9.00644 9.10002 10.6064 6.30001 9.80644 3.70001C9.20644 1.50001 7.20645 0 5.00645 0Z" transform="translate(19.0935 68.7999)" fill="#1485E0"/>
<path d="M190 0H0V267H190V0Z" transform="translate(34.1 23)" fill="white" stroke="#1485E0" stroke-width="4" stroke-miterlimit="10"/>
<path d="M0 0V251" transform="translate(68.1 31)" stroke="#C4E1F7" stroke-width="2" stroke-miterlimit="10"/>
<path d="M0 0H179" transform="translate(40.1 50.5)" stroke="#C4E1F7" stroke-miterlimit="10"/>
<path d="M0 0H179" transform="translate(40.1 58.5)" stroke="#C4E1F7" stroke-miterlimit="10"/>
<path d="M0 0H179" transform="translate(40.1 66.5)" stroke="#C4E1F7" stroke-miterlimit="10"/>
<path d="M0 0H179" transform="translate(40.1 74.5)" stroke="#C4E1F7" stroke-miterlimit="10"/>
<path d="M0 0H179" transform="translate(40.1 82.5)" stroke="#C4E1F7" stroke-miterlimit="10"/>
<path d="M0 0H179" transform="translate(40.1 90.5)" stroke="#C4E1F7" stroke-miterlimit="10"/>
<path d="M0 0H179" transform="translate(40.1 98.5)" stroke="#C4E1F7" stroke-miterlimit="10"/>
<path d="M0 0H179" transform="translate(40.1 106.5)" stroke="#C4E1F7" stroke-miterlimit="10"/>
<path d="M0 0H179" transform="translate(40.1 114.5)" stroke="#C4E1F7" stroke-miterlimit="10"/>
<path d="M0 0H179" transform="translate(40.1 122.5)" stroke="#C4E1F7" stroke-miterlimit="10"/>
<path d="M0 0H179" transform="translate(40.1 130.5)" stroke="#C4E1F7" stroke-miterlimit="10"/>
<path d="M0 0H179" transform="translate(40.1 138.5)" stroke="#C4E1F7" stroke-miterlimit="10"/>
<path d="M0 0H179" transform="translate(40.1 146.5)" stroke="#C4E1F7" stroke-miterlimit="10"/>
<path d="M0 0H179" transform="translate(40.1 154.5)" stroke="#C4E1F7" stroke-miterlimit="10"/>
<path d="M0 0H179" transform="translate(40.1 162.5)" stroke="#C4E1F7" stroke-miterlimit="10"/>
<path d="M0 0H179" transform="translate(40.1 170.5)" stroke="#C4E1F7" stroke-miterlimit="10"/>
<path d="M0 0H179" transform="translate(40.1 178.5)" stroke="#C4E1F7" stroke-miterlimit="10"/>
<path d="M0 0H179" transform="translate(40.1 186.5)" stroke="#C4E1F7" stroke-miterlimit="10"/>
<path d="M0 0H179" transform="translate(40.1 194.5)" stroke="#C4E1F7" stroke-miterlimit="10"/>
<path d="M0 0H179" transform="translate(40.1 202.5)" stroke="#C4E1F7" stroke-miterlimit="10"/>
<path d="M0 0H179" transform="translate(40.1 210.5)" stroke="#C4E1F7" stroke-miterlimit="10"/>
<path d="M0 0H179" transform="translate(40.1 218.5)" stroke="#C4E1F7" stroke-miterlimit="10"/>
<path d="M0 0H179" transform="translate(40.1 226.5)" stroke="#C4E1F7" stroke-miterlimit="10"/>
<path d="M0 0H179" transform="translate(40.1 234.5)" stroke="#C4E1F7" stroke-miterlimit="10"/>
<path d="M0 0H179" transform="translate(40.1 242.5)" stroke="#C4E1F7" stroke-miterlimit="10"/>
<path d="M0 0H179" transform="translate(40.1 250.5)" stroke="#C4E1F7" stroke-miterlimit="10"/>
<path d="M0 0H179" transform="translate(40.1 258.5)" stroke="#C4E1F7" stroke-miterlimit="10"/>
<path d="M0 0H179" transform="translate(40.1 266.5)" stroke="#C4E1F7" stroke-miterlimit="10"/>
<path d="M0 0H179" transform="translate(40.1 274.5)" stroke="#C4E1F7" stroke-miterlimit="10"/>
<path d="M4 8C1.8 8 0 6.2 0 4C0 1.8 1.8 0 4 0C6.2 0 8 1.8 8 4C8 6.2 6.3 8 4 8Z" transform="translate(44.9 258.5)" fill="white"/>
<path d="M5 2C6.7 2 8 3.3 8 5C8 6.7 6.7 8 5 8C3.3 8 2 6.7 2 5C2 3.3 3.4 2 5 2ZM5 0C2.2 0 0 2.2 0 5C0 7.8 2.2 10 5 10C7.8 10 10 7.8 10 5C10 2.2 7.8 0 5 0Z" transform="translate(43.9 257.5)" fill="#1485E0"/>
<path d="M4 8C1.8 8 0 6.2 0 4C0 1.8 1.8 0 4 0C6.2 0 8 1.8 8 4C8 6.2 6.3 8 4 8Z" transform="translate(44.9 152)" fill="white"/>
<path d="M5 2C6.7 2 8 3.3 8 5C8 6.7 6.7 8 5 8C3.3 8 2 6.7 2 5C2 3.3 3.4 2 5 2ZM5 0C2.2 0 0 2.2 0 5C0 7.8 2.2 10 5 10C7.8 10 10 7.8 10 5C10 2.2 7.8 0 5 0Z" transform="translate(43.9 151)" fill="#1485E0"/>
<path d="M4 8C1.8 8 0 6.2 0 4C0 1.8 1.8 0 4 0C6.2 0 8 1.8 8 4C8 6.2 6.3 8 4 8Z" transform="translate(44.9 45.5)" fill="white"/>
<path d="M5 2C6.7 2 8 3.3 8 5C8 6.7 6.7 8 5 8C3.3 8 2 6.7 2 5C2 3.3 3.4 2 5 2ZM5 0C2.2 0 0 2.2 0 5C0 7.8 2.2 10 5 10C7.8 10 10 7.8 10 5C10 2.2 7.8 0 5 0Z" transform="translate(43.9 44.5)" fill="#1485E0"/>
<path d="M7.91528 0L0.915279 0.599976C0.315279 0.599976 -0.0846845 1.10001 0.0153155 1.70001L3.3153 39.7C3.5153 41.9 5.41529 43.4 7.61529 43.2L22.6153 41.9" transform="translate(148.085 52)" fill="white"/>
<path d="M7.91528 0L0.915279 0.599976C0.315279 0.599976 -0.0846845 1.10001 0.0153155 1.70001L3.3153 39.7C3.5153 41.9 5.41529 43.4 7.61529 43.2L22.6153 41.9" transform="translate(148.085 52)" stroke="#1485E0" stroke-width="2" stroke-miterlimit="10"/>
<path d="M0 1.29999L11.9 137.7C11.9 138.3 12.4 138.7 12.9 138.7L14 138.6L14.4 143.6C14.4 144.2 14.9 144.6 15.5 144.5L24.5 143.7C25.1 143.7 25.5 143.1 25.4 142.6L25 137.6L25.9 137.5C26.5 137.5 26.9 136.9 26.9 136.4L15 0L0 1.29999Z" transform="translate(156.9 83.8)" fill="#C4E1F7" stroke="#1485E0" stroke-width="4" stroke-miterlimit="10"/>
<path d="M4.5 54L0 2.20001C0 1.60001 0.300024 1.19998 0.900024 1.09998L13.9 0C14.5 0 15 0.300024 15 0.900024L19.5 52.7" transform="translate(153.2 41)" fill="#C4E1F7"/>
<path d="M4.5 54L0 2.20001C0 1.60001 0.300024 1.19998 0.900024 1.09998L13.9 0C14.5 0 15 0.300024 15 0.900024L19.5 52.7" transform="translate(153.2 41)" stroke="#1485E0" stroke-width="4" stroke-miterlimit="10"/>
<path d="M0 1.20001L13 0" transform="translate(158.7 93.8)" stroke="#1485E0" stroke-width="2" stroke-miterlimit="10"/>
<path d="M0 1.09998L13 0" transform="translate(154.8 49)" stroke="#1485E0" stroke-width="2" stroke-miterlimit="10"/>
<path d="M11 0H0V5H11V0Z" transform="translate(155.308 44.0895) rotate(-4.99997)" fill="white"/>
<path d="M7 0H0V2H7V0Z" transform="translate(172.729 220.21) rotate(-4.99997)" fill="#1485E0"/>
<path d="M7 0H0V4H7V0Z" transform="translate(172.843 222.219) rotate(-4.99997)" fill="white"/>
<path d="M58.2 198.1L52.4 199.7C50.3 200.3 47.9 200 47.4 197.9L0 21.1L1.60001 0L13.5 17.5L60.9 194.3C61.5 196.3 60.3 197.5 58.2 198.1Z" transform="translate(76 70.1)" stroke="#1485E0" stroke-width="4" stroke-miterlimit="10"/>
</svg>
