<svg width="244" height="232" viewBox="0 0 244 232" fill="none" xmlns="http://www.w3.org/2000/svg">
<path d="M152 220C152 224.4 148.4 228 144 228H8C3.6 228 0 224.4 0 220V8C0 3.6 3.6 0 8 0H144C148.4 0 152 3.6 152 8V220Z" transform="translate(89.1 2)" fill="white" stroke="#1485E0" stroke-width="4" stroke-miterlimit="10"/>
<path d="M136 0H0V183H136V0Z" transform="translate(97.1 23)" fill="#C4E1F7"/>
<path d="M134 0H0V181H134V0Z" transform="translate(98.1 24)" fill="#C4E1F7"/>
<path d="M134 2V181H2V2H134ZM136 0H0V183H136V0Z" transform="translate(97.1 23)" fill="#1485E0"/>
<path opacity="0.44" fill-rule="evenodd" clip-rule="evenodd" d="M133.9 195.7H0V0H205.8L133.9 195.7Z" transform="translate(20.1 13.5)" fill="white"/>
<path d="M5.80005 11.6C9.0033 11.6 11.6 9.0033 11.6 5.80005C11.6 2.5968 9.0033 0 5.80005 0C2.5968 0 0 2.5968 0 5.80005C0 9.0033 2.5968 11.6 5.80005 11.6Z" transform="translate(159.1 210.6)" stroke="#1485E0" stroke-width="2" stroke-miterlimit="10"/>
<path d="M3 2C3.6 2 4 2.4 4 3C4 3.6 3.6 4 3 4C2.4 4 2 3.6 2 3C2 2.4 2.5 2 3 2ZM3 0C1.3 0 0 1.3 0 3C0 4.7 1.3 6 3 6C4.7 6 6 4.7 6 3C6 1.3 4.7 0 3 0Z" transform="translate(161.9 8.40002)" fill="#1485E0"/>
<path d="M3 2C3.6 2 4 2.4 4 3C4 3.6 3.6 4 3 4C2.4 4 2 3.6 2 3C2 2.4 2.5 2 3 2ZM3 0C1.3 0 0 1.3 0 3C0 4.7 1.3 6 3 6C4.7 6 6 4.7 6 3C6 1.3 4.7 0 3 0Z" transform="translate(134.8 65.5)" fill="#1485E0"/>
<path d="M2 1.29999C2.4 1.29999 2.70001 1.6 2.70001 2C2.70001 2.4 2.4 2.70001 2 2.70001C1.6 2.70001 1.29999 2.4 1.29999 2C1.29999 1.6 1.7 1.29999 2 1.29999ZM2 0C0.9 0 0 0.9 0 2C0 3.1 0.9 4 2 4C3.1 4 4 3.1 4 2C4 0.9 3.1 0 2 0Z" transform="translate(109.8 66.5)" fill="#1485E0"/>
<path d="M67 0H0V126H67V0Z" transform="translate(105 76)" fill="#C4E1F7"/>
<path d="M67 1V125H2V1H67ZM69 0H0V127H69V0Z" transform="translate(104 76)" fill="#1485E0"/>
<path opacity="0.44" fill-rule="evenodd" clip-rule="evenodd" d="M118.8 174H0V0H182.8L118.8 174Z" transform="translate(0 30)" fill="white"/>
<path d="M0 154.4V9.10001C0 5.80001 2.60002 2.69999 5.90002 2.29999C13.2 1.39999 26.5 0 40.6 0C54.6 0 67.8 1.39999 75.2 2.29999C78.5 2.69999 81 5.80001 81 9.10001V154.4C81 156.6 79.4 159.4 77.3 159.9C71.7 161.3 59.7 163.2 40.6 163.2C21.5 163.2 9.50002 161.3 3.90002 159.9C1.70002 159.4 0 156.6 0 154.4Z" transform="translate(98 60.5)" fill="white" stroke="#1485E0" stroke-width="4" stroke-miterlimit="10"/>
<path d="M3 2C3.6 2 4 2.4 4 3C4 3.6 3.6 4 3 4C2.4 4 2 3.6 2 3C2 2.4 2.4 2 3 2ZM3 0C1.3 0 0 1.3 0 3C0 4.7 1.3 6 3 6C4.7 6 6 4.7 6 3C6 1.3 4.7 0 3 0Z" transform="translate(135 65.4)" fill="#1485E0"/>
<path d="M2 1.30002C2.4 1.30002 2.70001 1.6 2.70001 2C2.70001 2.4 2.4 2.70001 2 2.70001C1.6 2.70001 1.29999 2.4 1.29999 2C1.29999 1.6 1.6 1.30002 2 1.30002ZM2 0C0.9 0 0 0.9 0 2C0 3.1 0.9 4 2 4C3.1 4 4 3.1 4 2C4 0.9 3.1 0 2 0Z" transform="translate(110 66.4)" fill="#1485E0"/>
<path d="M67 0H0V125H67V0Z" transform="translate(105 76)" fill="#C4E1F7"/>
<path d="M67 2V125H2V2H67ZM69 0H0V127H69V0Z" transform="translate(104 75)" fill="#1485E0"/>
<path opacity="0.44" fill-rule="evenodd" clip-rule="evenodd" d="M119 174H0V0H183L119 174Z" transform="translate(0 29)" fill="white"/>
</svg>
