<svg width="266" height="200" viewBox="0 0 266 200" fill="none" xmlns="http://www.w3.org/2000/svg">
<path d="M261 0H0V196H261V0Z" transform="translate(2.09998 2)" fill="#C4E1F7"/>
<path d="M254 0H3C1.3 0 0 1.3 0 3V20H257V3C257 1.3 255.7 0 254 0Z" transform="translate(3.89996 3.5)" fill="white"/>
<path d="M79.5 0L28.9 50.6L8.79999 30.5L0 39.3L28.9 68.2L88.4 8.80002L79.5 0Z" transform="translate(90.8 66.4)" fill="#1485E0"/>
<path opacity="0.44" fill-rule="evenodd" clip-rule="evenodd" d="M119 174H0V0H183L119 174Z" transform="translate(1.89996 23.5)" fill="white"/>
<path d="M0 0H257" transform="translate(4.09998 23)" stroke="#1485E0" stroke-width="2" stroke-miterlimit="10"/>
<path d="M3 6C4.65685 6 6 4.65685 6 3C6 1.34315 4.65685 0 3 0C1.34315 0 0 1.34315 0 3C0 4.65685 1.34315 6 3 6Z" transform="translate(13.2 9.5)" fill="white" stroke="#1485E0" stroke-width="2" stroke-miterlimit="10"/>
<path d="M3 6C4.65685 6 6 4.65685 6 3C6 1.34315 4.65685 0 3 0C1.34315 0 0 1.34315 0 3C0 4.65685 1.34315 6 3 6Z" transform="translate(24.2 9.5)" fill="white" stroke="#1485E0" stroke-width="2" stroke-miterlimit="10"/>
<path d="M3 6C4.65685 6 6 4.65685 6 3C6 1.34315 4.65685 0 3 0C1.34315 0 0 1.34315 0 3C0 4.65685 1.34315 6 3 6Z" transform="translate(35.2 9.5)" fill="white" stroke="#1485E0" stroke-width="2" stroke-miterlimit="10"/>
<path d="M261 0H0V196H261V0Z" transform="translate(2.09998 2)" stroke="#1485E0" stroke-width="4" stroke-miterlimit="10"/>
</svg>
